<?xml version="1.0" standalone="no"?>
<!DOCTYPE svg PUBLIC "-//W3C//DTD SVG 20010904//EN"
 "http://www.w3.org/TR/2001/REC-SVG-20010904/DTD/svg10.dtd">
<svg version="1.0" xmlns="http://www.w3.org/2000/svg"
 width="804.000000pt" height="804.000000pt" viewBox="0 0 804.000000 804.000000"
 preserveAspectRatio="xMidYMid meet">
<metadata>
Created by potrace 1.16, written by Peter Selinger 2001-2019
</metadata>
<g transform="translate(0.000000,804.000000) scale(0.100000,-0.100000)"
fill="#000000" stroke="none">
<path d="M3825 7994 c-33 -2 -130 -11 -215 -19 -919 -90 -1768 -493 -2426
-1149 -661 -661 -1061 -1508 -1155 -2451 -17 -167 -17 -583 0 -750 129 -1285
826 -2386 1936 -3059 796 -483 1808 -668 2740 -500 376 68 713 177 1047 341
1750 855 2631 2837 2091 4703 -452 1563 -1815 2701 -3430 2865 -155 15 -479
26 -588 19z m2884 -2009 c7 -7 -3 -22 -32 -45 -24 -19 -445 -379 -936 -800
-491 -421 -1080 -917 -1308 -1104 -376 -307 -416 -337 -431 -323 -9 8 -188
154 -398 324 -209 171 -756 631 -1215 1024 -459 393 -887 759 -951 814 -65 55
-118 103 -118 107 0 4 10 9 23 11 50 10 5356 2 5366 -8z m-4666 -1061 c524
-448 952 -821 952 -827 0 -7 -180 -185 -400 -397 -220 -211 -562 -539 -760
-729 -198 -190 -447 -430 -554 -533 -135 -130 -198 -185 -206 -177 -11 11 -21
3385 -10 3447 3 17 10 32 16 32 5 0 438 -367 962 -816z m4932 774 c11 -81 1
-3426 -11 -3438 -8 -8 -59 36 -185 157 -557 538 -1689 1624 -1714 1646 -23 20
-28 29 -20 41 16 25 1899 1635 1912 1636 6 0 14 -19 18 -42z m-3330 -2118
c202 -165 371 -300 375 -300 3 0 172 135 375 300 203 166 374 299 380 298 10
-2 731 -691 1350 -1289 71 -69 232 -223 358 -344 125 -120 227 -221 227 -225
0 -4 -14 -10 -31 -14 -41 -8 -5277 -8 -5318 0 -17 4 -31 10 -31 14 0 5 141
143 313 308 171 165 605 581 962 925 358 344 655 626 661 626 5 1 176 -134
379 -299z"/>
</g>
</svg>
