<svg width="29" height="30" viewBox="0 0 29 30" fill="none" xmlns="http://www.w3.org/2000/svg">
<path d="M27.1511 1C25.4002 1.87547 23.6131 2.67609 21.8313 3.486C20.225 4.21615 18.5696 5.17062 16.8593 5.66716C16.3856 5.80469 15.4286 5.1195 14.9744 5.01024C13.8974 4.75115 12.7831 4.93321 11.7242 5.19057C9.16803 5.81178 6.8684 7.05375 4.78567 8.64263C4.49142 8.86711 0.315079 12.3892 1.09746 12.6958C1.64013 12.9085 2.55139 12.7228 3.0897 12.6314C4.82487 12.3369 6.49953 11.7462 8.1948 11.2875C9.18221 11.0203 10.1568 10.7805 11.1789 10.695C11.6342 10.6569 12.472 10.5161 12.8791 10.8152C13.7163 11.4302 9.59334 16.3137 9.10505 16.9637C6.90308 19.8946 4.32509 22.7803 2.65604 26.0618C2.32988 26.7031 1.38614 28.6883 2.98665 28.2129C4.61251 27.7301 5.98265 26.4933 7.24162 25.4221C9.27051 23.6957 11.1465 21.7833 13.2484 20.1452C15.1234 18.684 17.098 17.1153 19.3196 16.1994C20.1756 15.8465 20.3906 16.2942 20.3371 17.1311C20.2635 18.2856 18.8369 23.2076 21.5007 22.1675C22.9502 21.6016 24.4785 19.6057 24.5535 18.0371C24.6467 16.0872 23.1642 14.3352 22.0117 12.9234C20.1513 10.6445 22.6867 7.28546 24.0082 5.3709C24.6939 4.37751 25.4381 3.42979 26.155 2.45983C26.3492 2.19701 26.5456 1.94106 26.6101 1.61828" stroke="white" stroke-width="2" stroke-linecap="round"/>
</svg>
