<svg width="45" height="90" viewBox="0 0 45 90" fill="none" xmlns="http://www.w3.org/2000/svg">
<path d="M27 67.5L17.5 58.5L11.5 67.5L20.5 75.5L27 67.5Z" fill="white" stroke="black"/>
<path d="M20.3421 27.2979C18.8968 27.8123 17.3516 28.1118 15.9883 28.3356C13.8276 28.6904 7.27935 29.0743 9.42653 28.6449C11.7041 28.1894 13.9892 28.0152 16.2866 27.728C17.6834 27.5534 19.0096 27.3345 20.3421 27.2979C21.3789 27.2695 22.4195 27.3515 23.5002 27.6507C26.3052 28.4275 27.5348 31.723 28.3829 34.2346C29.6036 37.8498 30.0515 41.5403 30.6143 45.2814C30.7397 46.1152 30.9911 46.9558 31.1779 47.7989C31.0718 46.4615 30.9494 44.8452 30.8574 44C30.2827 38.7234 28.3547 31.7744 32.2051 27.2972C32.7073 26.7132 33.3841 26.2798 34.1415 25.9422C33.8458 25.8593 33.5649 25.7393 33.3097 25.5739C29.2438 22.9386 28.8303 15.3692 28.3166 11.1689C28.044 8.94018 28.0294 6.48259 28.0294 4.23146C28.0294 4.12824 28.0307 4.0376 28.0323 3.96808C28.0293 4.03605 28.0248 4.12984 28.0183 4.25355C27.905 6.40656 27.6716 8.54611 27.5875 10.7049C27.3926 15.7071 27.7262 20.6386 27.9142 25.5917C28.1114 25.8217 28.3253 26.0779 28.5237 26.3204C28.6326 26.336 28.7305 26.3523 28.8137 26.3693C29.1716 26.4422 29.4613 26.523 29.6863 26.6092C29.6742 26.1563 29.6201 25.6615 29.6201 25.5076C29.6201 23.3352 30.1536 26.1979 30.6143 26.767C30.9359 27.1642 30.6389 27.2787 30.2167 27.3138C30.0716 27.5022 29.7186 27.6881 29.1816 27.854C29.5302 28.3662 29.68 28.6192 29.3329 28.2472C29.2621 28.1714 29.1784 28.0415 29.0883 27.8822C28.9978 27.9087 28.9026 27.9347 28.8026 27.96C27.5563 28.2762 28.1642 27.7054 28.8583 27.4469C28.8215 27.3742 28.7846 27.3 28.7478 27.2258C28.5363 26.9216 28.3045 26.5892 28.0829 26.266C28.0654 26.2641 28.0478 26.2622 28.0301 26.2603C28.0296 26.2736 28.0294 26.2878 28.0294 26.303V30.8764C28.0294 29.3302 27.9923 27.7893 27.9383 26.2509C27.9359 26.1817 27.9334 26.1125 27.9309 26.0433C27.6503 25.6299 27.3991 25.2469 27.245 24.9774C27.0326 24.6057 27.4217 25.0172 27.9142 25.5917C27.7262 20.6386 27.3926 15.7071 27.5875 10.7049C27.6716 8.54611 27.905 6.40656 28.0183 4.25355C28.0248 4.12984 28.0293 4.03605 28.0323 3.96808C28.0363 3.79631 28.0418 3.75343 28.0323 3.96808C28.0307 4.0376 28.0294 4.12824 28.0294 4.23146C28.0294 6.48259 28.044 8.94018 28.3166 11.1689C28.8303 15.3692 29.2438 22.9386 33.3097 25.5739C33.5649 25.7393 33.8458 25.8593 34.1415 25.9422C35.6172 25.2844 37.3985 24.9907 38.789 24.657C39.882 24.3947 41.3751 23.8016 42.5449 24.0715C44.4102 24.502 38.9421 25.3856 37.0878 25.8611C36.1902 26.0913 35.0895 26.2078 34.1415 25.9422C33.3841 26.2798 32.7073 26.7132 32.2051 27.2972C28.3547 31.7744 30.2827 38.7234 30.8574 44C30.9494 44.8452 31.0718 46.4615 31.1779 47.7989C31.31 48.3951 31.4097 48.9926 31.4097 49.5897C31.4097 50.6118 31.3055 49.4068 31.1779 47.7989C30.9911 46.9558 30.7397 46.1152 30.6143 45.2814C30.0515 41.5403 29.6036 37.8498 28.3829 34.2346C27.5348 31.723 26.3052 28.4275 23.5002 27.6507C22.4195 27.3515 21.3789 27.2695 20.3421 27.2979Z" fill="black"/>
<path d="M25.8421 2C25.8421 8.54412 28.9765 18.8831 24.2955 24.7343C22.416 27.0838 18.8119 27.872 15.9883 28.3356C13.8276 28.6904 7.27935 29.0743 9.42653 28.6449C11.7041 28.1894 13.9892 28.0152 16.2866 27.728C18.7704 27.4176 21.0308 26.9669 23.5002 27.6507C26.3052 28.4275 27.5348 31.723 28.3829 34.2346C29.6036 37.8498 30.0515 41.5403 30.6143 45.2814C30.8284 46.7047 31.4097 48.1482 31.4097 49.5897C31.4097 51.462 31.0601 45.8613 30.8574 44C30.2827 38.7234 28.3547 31.7744 32.2051 27.2972C33.6859 25.5753 36.6849 25.162 38.789 24.657C39.882 24.3947 41.3751 23.8016 42.5449 24.0715C44.4102 24.502 38.9421 25.3856 37.0878 25.8611C35.9102 26.1631 34.383 26.2695 33.3097 25.5739C29.2438 22.9386 28.8303 15.3692 28.3166 11.1689C28.044 8.94018 28.0294 6.48259 28.0294 4.23146C28.0294 3.79245 28.0537 3.58108 28.0183 4.25355C27.905 6.40656 27.6716 8.54611 27.5875 10.7049C27.3235 17.4819 28.0294 24.1292 28.0294 30.8764C28.0294 32.4008 28.0294 27.8275 28.0294 26.303C28.0294 25.4158 28.9098 27.7939 29.3329 28.2472C30.2152 29.1926 27.8867 26.1002 27.245 24.9774C26.8136 24.2224 28.8632 26.6984 29.2224 27.2088C29.9329 28.2184 29.6201 25.8776 29.6201 25.5076C29.6201 23.3352 30.1536 26.1979 30.6143 26.767C31.2245 27.5207 29.6077 27.2565 29.1341 27.3635C28.3573 27.5389 27.3915 28.3181 28.8026 27.96C30.6708 27.486 30.8978 26.7938 28.8137 26.3693C27.8378 26.1705 24.8462 26.06 25.8421 26.06" stroke="black" stroke-width="3" stroke-linecap="round"/>
<path d="M14.8276 43C14.8276 43.4203 14.9542 43.6875 15.0707 44.0826C16.0755 47.4919 16.1123 51.4391 16.3742 54.9748C16.581 57.7671 16.5396 61.3277 14.8055 63.7017C12.1123 67.3889 6.8271 68.4519 2.49938 68.4519C0.0174816 68.4519 7.46602 68.286 9.94493 68.4077C12.9437 68.5549 15.6731 69.0382 17.7661 71.4345C21.4039 75.5995 25.2261 92.2567 23.4773 87.0105C22.7148 84.7231 20.8118 80.6455 21.1816 78.2946C21.7773 74.5078 22.5197 71.5443 25.0149 68.5955C26.491 66.8509 30.7638 65.9636 32.6019 64.6849C32.9336 64.4542 34.137 64.1794 33.7508 64.2983C29.5565 65.5888 23.7993 66.6399 20.5609 62.7075C16.7281 58.0534 16.2195 51.2478 16.2195 45.3861" stroke="black" stroke-width="3" stroke-linecap="round"/>
</svg>
